<svg width="525" height="563" viewBox="0 0 525 563" fill="none" xmlns="http://www.w3.org/2000/svg">
<path d="M262.5 481.433C374.937 481.433 466.085 475.726 466.085 468.686C466.085 461.647 374.937 455.94 262.5 455.94C150.063 455.94 58.9155 461.647 58.9155 468.686C58.9155 475.726 150.063 481.433 262.5 481.433Z" fill="#F5F5F5"/>
<g opacity="0.4">
<path d="M150.287 196.555C129.366 196.692 108.803 190.734 90.7935 179.316C90.7 179.255 90.6323 179.157 90.6049 179.044C90.5774 178.93 90.5924 178.809 90.6465 178.707C90.6737 178.657 90.71 178.612 90.7533 178.577C90.7967 178.541 90.8463 178.515 90.8991 178.501C90.9519 178.486 91.0069 178.483 91.0609 178.491C91.1149 178.5 91.1668 178.52 91.2135 178.55C148.481 214.379 206.777 186.893 263.172 160.32C317.667 134.636 374.031 108.096 429.545 138.498C429.593 138.524 429.636 138.56 429.671 138.603C429.707 138.647 429.733 138.698 429.751 138.753C429.768 138.808 429.774 138.866 429.771 138.923C429.767 138.981 429.752 139.037 429.728 139.089C429.704 139.141 429.671 139.187 429.63 139.225C429.589 139.263 429.542 139.292 429.491 139.31C429.387 139.347 429.274 139.338 429.177 139.286C374 109.109 317.877 135.593 263.498 161.187C226.328 178.651 188.328 196.555 150.287 196.555Z" fill="#263238"/>
<path d="M150.287 214.165C129.99 214.301 110.021 208.684 92.4 197.883C92.3054 197.826 92.2357 197.732 92.2062 197.62C92.1767 197.508 92.1897 197.388 92.2425 197.286C92.2975 197.184 92.3878 197.109 92.4938 197.078C92.5998 197.046 92.7132 197.06 92.8095 197.118C149.51 231.483 207.26 204.256 263.193 177.919C318.213 152.021 375.113 125.177 431.193 156.919C431.275 156.983 431.332 157.076 431.355 157.182C431.378 157.287 431.364 157.398 431.317 157.494C431.27 157.59 431.192 157.664 431.098 157.703C431.004 157.742 430.9 157.744 430.805 157.708C375.155 126.18 318.454 152.888 263.56 178.73C226.327 196.251 188.318 214.165 150.287 214.165Z" fill="#263238"/>
<path d="M150.276 231.765C130.588 231.898 111.197 226.618 93.954 216.428C93.8587 216.369 93.7888 216.273 93.7593 216.159C93.7299 216.045 93.7432 215.924 93.7965 215.82C93.8217 215.769 93.8563 215.724 93.8984 215.687C93.9404 215.651 93.9889 215.624 94.041 215.608C94.093 215.592 94.1475 215.588 94.2011 215.595C94.2548 215.603 94.3065 215.622 94.353 215.652C150.57 248.587 207.805 221.608 263.162 195.519C318.707 169.35 376.142 142.281 432.705 175.431C432.799 175.488 432.87 175.582 432.901 175.693C432.932 175.804 432.922 175.924 432.873 176.028C432.848 176.079 432.813 176.124 432.771 176.161C432.73 176.198 432.681 176.225 432.63 176.242C432.578 176.259 432.524 176.264 432.47 176.258C432.416 176.253 432.364 176.235 432.317 176.208C376.1 143.272 318.854 170.24 263.497 196.329C226.327 213.85 188.307 231.765 150.276 231.765Z" fill="#263238"/>
<path d="M150.266 249.364C131.194 249.496 112.391 244.539 95.55 234.94C95.4531 234.883 95.3804 234.787 95.3472 234.674C95.314 234.561 95.3227 234.438 95.3715 234.332C95.4248 234.228 95.5143 234.15 95.6204 234.117C95.7266 234.083 95.841 234.095 95.9385 234.152C151.589 265.68 208.341 238.971 263.183 213.118C319.232 186.702 377.202 159.385 434.333 193.976C434.427 194.033 434.497 194.128 434.526 194.239C434.556 194.351 434.543 194.471 434.49 194.573C434.435 194.675 434.345 194.75 434.239 194.782C434.133 194.813 434.019 194.799 433.923 194.742C377.223 160.376 319.41 187.603 263.54 213.884C226.338 231.449 188.307 249.364 150.266 249.364Z" fill="#263238"/>
<path d="M150.266 266.975C131.794 267.115 113.562 262.48 97.1145 253.463C97.0183 253.407 96.9459 253.314 96.9126 253.203C96.8793 253.092 96.8877 252.971 96.936 252.866C96.9605 252.814 96.9944 252.767 97.0357 252.729C97.077 252.691 97.125 252.663 97.1768 252.645C97.2286 252.627 97.2832 252.621 97.3374 252.626C97.3917 252.631 97.4444 252.647 97.4925 252.674C152.66 282.84 208.793 256.368 263.172 230.762C319.746 204.11 378.241 176.534 435.865 212.589C435.913 212.618 435.954 212.657 435.987 212.703C436.021 212.75 436.045 212.803 436.058 212.86C436.072 212.916 436.075 212.975 436.067 213.033C436.059 213.091 436.041 213.147 436.013 213.197C435.986 213.247 435.951 213.291 435.909 213.327C435.866 213.362 435.818 213.388 435.766 213.403C435.714 213.418 435.659 213.421 435.606 213.413C435.553 213.404 435.502 213.384 435.456 213.354C378.189 177.48 319.883 204.932 263.55 231.528C226.338 249.049 188.297 266.975 150.266 266.975Z" fill="#263238"/>
</g>
<path d="M134.148 227.452C133.764 225.817 132.848 224.384 131.565 223.41C130.827 222.852 130.211 222.13 129.76 221.292C129.309 220.454 129.032 219.52 128.951 218.557L129.171 217.904C129.209 217.793 129.204 217.671 129.157 217.564C129.111 217.458 129.027 217.375 128.924 217.335C128.821 217.295 128.707 217.3 128.608 217.349C128.509 217.399 128.432 217.489 128.394 217.599L119.931 243.216C119.666 242.588 119.284 242.024 118.808 241.561C117.622 240.436 116.167 239.688 114.608 239.399C111.111 238.667 107.909 240.063 107.468 242.507C107.079 244.612 108.864 246.819 111.594 247.866C112.049 248.038 112.516 248.174 112.991 248.272C114.531 248.629 116.135 248.52 117.621 247.956C118.217 247.766 118.759 247.416 119.194 246.939C119.63 246.463 119.945 245.875 120.11 245.232L126.053 227.317C126.419 228.996 127.345 230.474 128.657 231.472C129.434 232.06 130.077 232.83 130.537 233.723C130.997 234.617 131.262 235.61 131.313 236.629C131.321 236.689 131.343 236.746 131.378 236.793C131.413 236.841 131.46 236.877 131.513 236.899H131.586C131.655 236.911 131.726 236.896 131.786 236.857C131.845 236.817 131.89 236.757 131.912 236.685L134.012 230.357C134.337 229.427 134.385 228.412 134.148 227.452Z" fill="#263238"/>
<path d="M368.865 177.987C367.652 176.896 366.112 176.312 364.529 176.343C363.625 176.359 362.729 176.166 361.901 175.777C361.073 175.388 360.332 174.813 359.73 174.091L359.541 173.415C359.509 173.303 359.438 173.208 359.342 173.151C359.245 173.094 359.132 173.08 359.027 173.111C358.921 173.145 358.833 173.222 358.78 173.325C358.727 173.428 358.714 173.55 358.743 173.663L365.978 199.842C365.416 199.497 364.794 199.279 364.151 199.201C362.573 199.036 360.983 199.348 359.562 200.101C356.318 201.723 354.48 204.887 355.467 207.161C356.318 209.121 358.995 209.785 361.767 208.896C362.23 208.746 362.683 208.562 363.122 208.344C364.573 207.658 365.817 206.55 366.713 205.146C367.093 204.611 367.341 203.981 367.433 203.316C367.525 202.65 367.458 201.97 367.238 201.34L362.166 182.998C363.394 184.13 364.966 184.743 366.587 184.72C367.542 184.71 368.487 184.93 369.353 185.364C370.218 185.799 370.981 186.437 371.585 187.231C371.625 187.275 371.675 187.306 371.731 187.322C371.786 187.337 371.844 187.337 371.9 187.321H371.973C372.034 187.284 372.081 187.226 372.108 187.157C372.134 187.088 372.139 187.011 372.12 186.939L370.325 180.464C370.096 179.493 369.585 178.625 368.865 177.987Z" fill="#263238"/>
<path d="M206.272 222.554C207.394 223.042 208.399 223.795 209.213 224.756C210.027 225.717 210.63 226.861 210.976 228.105C210.999 228.18 211.043 228.246 211.101 228.294C211.159 228.342 211.229 228.37 211.302 228.375C211.333 228.386 211.366 228.386 211.397 228.375C211.485 228.364 211.566 228.321 211.629 228.253C211.692 228.186 211.732 228.098 211.743 228.004L212.3 222.543C212.431 221.307 212.207 220.058 211.659 218.962C210.734 217.055 209.203 215.565 207.344 214.762C206.277 214.3 205.316 213.596 204.528 212.698C203.739 211.8 203.142 210.729 202.776 209.56L202.86 208.67C202.875 208.523 202.834 208.375 202.748 208.259C202.661 208.143 202.536 208.068 202.398 208.051C202.329 208.043 202.259 208.05 202.193 208.072C202.126 208.093 202.064 208.128 202.011 208.175C201.957 208.222 201.913 208.28 201.88 208.346C201.847 208.412 201.827 208.484 201.821 208.558L198.324 242.934C197.826 242.243 197.2 241.668 196.487 241.245C194.714 240.22 192.711 239.744 190.701 239.872C188.691 239.922 186.733 240.565 185.041 241.73C184.292 242.106 183.664 242.711 183.234 243.469C182.805 244.228 182.594 245.105 182.627 245.991C182.661 246.878 182.938 247.734 183.423 248.452C183.909 249.17 184.581 249.718 185.356 250.028C186.561 250.746 187.891 251.187 189.262 251.323C189.883 251.402 190.508 251.425 191.131 251.391C195.625 251.199 199.185 248.508 199.132 245.367L200.624 230.661C201.548 232.625 203.103 234.165 205.002 234.996C206.724 235.897 208.341 236.764 209.706 240.547C209.737 240.619 209.783 240.681 209.842 240.728C209.901 240.775 209.969 240.806 210.042 240.818H210.137C210.226 240.807 210.309 240.763 210.37 240.693C210.432 240.622 210.468 240.531 210.472 240.435L211.029 234.985C211.171 233.745 210.947 232.489 210.388 231.393C209.463 229.486 207.933 227.996 206.073 227.193C205.005 226.733 204.044 226.03 203.255 225.132C202.466 224.233 201.869 223.162 201.506 221.991L201.894 218.219C202.81 220.189 204.368 221.731 206.272 222.554Z" fill="#263238"/>
<path d="M176.936 206.576L177.807 187.062L178.133 179.788V179.372L159.6 178.426V178.831L159.275 186.117L158.487 203.964C157.743 203.204 156.845 202.638 155.863 202.312C154.881 201.986 153.842 201.908 152.828 202.083C149.552 202.444 147.063 204.605 147.273 206.902C147.462 208.873 149.594 210.28 152.282 210.461C152.725 210.5 153.171 210.5 153.615 210.461C156.87 210.112 159.338 207.995 159.17 205.72L159.915 188.954L176.936 189.821L176.274 204.898C175.881 204.424 175.402 204.041 174.867 203.772C173.539 203.115 172.067 202.866 170.615 203.052C167.339 203.412 164.85 205.563 165.06 207.86C165.249 209.841 167.381 211.238 170.069 211.429C170.512 211.468 170.958 211.468 171.402 211.429C174.626 210.979 177.104 208.85 176.936 206.576ZM159.936 188.098L160.02 186.15L177.041 187.029L176.957 188.965L159.936 188.098Z" fill="#263238"/>
<path d="M425.061 169.035L426.846 153.384L427.508 147.551V147.224L412.65 145.254V145.592L411.978 151.424L410.34 165.747C409.784 165.087 409.092 164.575 408.319 164.25C407.547 163.926 406.714 163.798 405.888 163.878C403.232 163.946 401.111 165.533 401.153 167.391C401.153 168.99 402.833 170.296 404.985 170.578C405.335 170.605 405.686 170.605 406.035 170.578C408.671 170.499 410.781 168.945 410.771 167.11L412.304 153.665L425.954 155.456L424.578 167.549C424.298 167.136 423.94 166.79 423.528 166.535C422.5 165.922 421.333 165.629 420.158 165.691C417.491 165.77 415.37 167.346 415.412 169.204C415.412 170.803 417.092 172.109 419.244 172.391C419.594 172.418 419.945 172.418 420.294 172.391C422.961 172.424 425.061 170.87 425.061 169.035ZM412.409 153.068L412.577 151.515L426.227 153.305L426.059 154.859L412.409 153.068Z" fill="#263238"/>
<path d="M370.43 133.037L361.557 113.49L358.25 106.193L358.05 105.844L339.476 115.539L339.654 115.944L342.972 123.241L351.078 141.122C349.367 140.412 346.878 140.885 344.631 142.529C341.597 144.781 340.242 148.283 341.597 150.411C342.762 152.235 345.566 152.427 348.254 151.03C348.704 150.799 349.136 150.528 349.545 150.22C352.538 148.024 353.892 144.59 352.601 142.405L343.728 122.858L360.791 113.951L368.907 131.742C367.196 131.033 364.707 131.506 362.45 133.15C361.087 134.109 359.997 135.453 359.3 137.034C358.954 137.641 358.78 138.341 358.798 139.052C358.816 139.762 359.025 140.452 359.4 141.037C359.776 141.623 360.301 142.08 360.913 142.352C361.524 142.625 362.197 142.702 362.849 142.574C363.946 142.501 365.019 142.187 365.999 141.651C366.454 141.415 366.893 141.144 367.311 140.84C370.367 138.656 371.7 135.12 370.43 133.037Z" fill="#263238"/>
<path d="M309.256 231.877C308.385 231.877 307.461 231.877 306.505 231.765C300.142 231.224 294.546 227.722 289.852 221.372C275.751 202.23 274.05 163.585 275.436 153.924L276.003 154.014C274.627 163.619 276.307 202.027 290.304 220.989C294.892 227.204 300.353 230.616 306.548 231.123C316.155 231.945 323.116 228.454 326.676 221.045C332.293 209.346 328.009 189.618 316.69 175.161C313.057 170.521 311.829 165.499 313.32 161.39C313.854 159.887 314.76 158.569 315.941 157.577C317.121 156.585 318.531 155.957 320.019 155.76C324.093 155.174 328.324 157.584 331.569 162.358L331.107 162.718C327.957 158.135 323.935 155.816 320.061 156.368C318.676 156.55 317.363 157.134 316.264 158.056C315.165 158.979 314.321 160.205 313.824 161.604C312.406 165.511 313.603 170.308 317.1 174.766C328.744 189.641 332.965 209.222 327.148 221.327C324.817 226.326 319.809 231.877 309.256 231.877Z" fill="#63E2C6"/>
<path d="M253.575 115.032C246.225 118.77 236.386 121.484 239.505 135.649C242.623 149.814 234.318 154.003 240.555 159.532C246.792 165.06 268.579 164.554 276.958 161.074C286.408 157.145 297.339 143.869 286.681 137.079C278.365 131.787 274.753 124.941 273.546 120.775C271.078 112.273 262.584 107.465 253.575 115.032Z" fill="#263238"/>
<path d="M294.682 136.528C286.587 134.76 278.471 131.539 273.998 120.088C272.202 115.494 269.356 112.6 265.965 111.947C262.132 111.215 257.838 113.298 253.9 117.825L253.48 117.397C257.554 112.724 262.017 110.562 266.081 111.35C269.672 112.037 272.674 115.055 274.543 119.851C278.911 131.033 286.87 134.185 294.819 135.919L294.682 136.528Z" fill="#263238"/>
<path d="M291.606 178.73L291.995 179.169L292.509 179.732C292.876 180.104 293.234 180.498 293.633 180.858C294.399 181.624 295.229 182.356 296.069 183.11C297.749 184.582 299.502 185.958 301.319 187.231C303.167 188.526 305.099 189.708 307.041 190.868C308.091 191.409 309.015 191.994 310.034 192.512L312.386 193.717C312.724 193.854 313.097 193.854 313.436 193.717C314.153 193.437 314.823 193.034 315.42 192.523C317.023 191.154 318.465 189.581 319.715 187.839C322.485 183.993 324.98 179.928 327.18 175.679L331.58 177.604C330.142 182.726 328.128 187.641 325.584 192.242C324.213 194.725 322.535 196.997 320.596 198.998C319.427 200.188 318.087 201.169 316.628 201.903C314.783 202.835 312.715 203.134 310.706 202.759C310.184 202.659 309.671 202.512 309.173 202.32L308.207 201.937L306.464 201.216C305.288 200.743 304.153 200.169 303.009 199.64C300.717 198.511 298.484 197.248 296.321 195.856C294.139 194.446 292.035 192.9 290.021 191.229C288.971 190.362 288.026 189.472 287.06 188.504C286.577 188.031 286.093 187.524 285.621 187.006L284.918 186.195C284.666 185.891 284.477 185.666 284.12 185.204L291.606 178.73Z" fill="#FFB573"/>
<path d="M283.92 169.317C287.805 168.303 297.675 181.995 297.675 181.995L291.68 194.235C291.68 194.235 275.1 184.202 275.73 178.674C276.381 172.92 278.25 170.803 283.92 169.317Z" fill="#63E2C6"/>
<path opacity="0.2" d="M283.92 169.317C287.805 168.303 297.675 181.995 297.675 181.995L291.68 194.235C291.68 194.235 275.1 184.202 275.73 178.674C276.381 172.92 278.25 170.803 283.92 169.317Z" fill="white"/>
<path opacity="0.2" d="M286.482 174.057L285.537 190.08C288.834 192.501 291.679 194.235 291.679 194.235L292.929 191.668L286.482 174.057Z" fill="black"/>
<path d="M326.34 178.291L329.952 167.538L335.086 176.163C335.086 176.163 332.209 181.793 328.303 181.793L326.34 178.291Z" fill="#FFB573"/>
<path d="M335.17 162.561L340.452 169.013L335.087 176.151L329.952 167.538L335.17 162.561Z" fill="#FFB573"/>
<path d="M275.32 453.204L284.676 453.598L286.345 430.29L276.99 429.896L275.32 453.204Z" fill="#FFB573"/>
<path d="M184.191 315.246L182.343 325.11L203.07 332.868L204.908 322.993L184.191 315.246Z" fill="#FFB573"/>
<path d="M183.939 326.54L187.509 315.899C187.576 315.717 187.578 315.515 187.514 315.332C187.45 315.149 187.325 314.998 187.162 314.908L179.728 310.663C179.537 310.559 179.327 310.5 179.112 310.49C178.898 310.48 178.684 310.52 178.485 310.606C178.286 310.693 178.106 310.824 177.959 310.991C177.811 311.158 177.698 311.358 177.628 311.575C176.431 315.302 176.032 317.205 174.478 321.845C173.502 324.727 171.129 330.076 169.796 334.039C168.462 338.003 172.053 339.669 172.946 338.127C176.936 331.28 180.064 329.648 182.857 327.914C183.353 327.601 183.735 327.116 183.939 326.54Z" fill="#263238"/>
<path d="M284.991 453.001L274.837 449.95C274.663 449.893 274.475 449.907 274.31 449.99C274.145 450.074 274.015 450.22 273.945 450.4L270.532 458.665C270.456 458.88 270.424 459.11 270.436 459.34C270.449 459.57 270.507 459.794 270.606 459.998C270.705 460.202 270.843 460.382 271.011 460.524C271.18 460.667 271.374 460.77 271.582 460.827C275.131 461.818 276.895 462.11 281.368 463.45C284.109 464.272 292.141 468.157 296.068 468.495C299.995 468.833 300.51 464.678 298.904 464.16C293.724 462.52 289.276 458.919 286.387 454.026C286.051 453.516 285.556 453.153 284.991 453.001Z" fill="#263238"/>
<g opacity="0.2">
<path d="M286.346 430.29L285.485 442.304L276.129 441.921L276.98 429.907L286.346 430.29Z" fill="black"/>
<path d="M204.908 322.993L203.06 332.868L192.381 328.86L194.229 318.996L204.908 322.993Z" fill="black"/>
</g>
<path d="M288.823 173.505C289.726 179.203 290.598 193.571 286.724 227.035L248.682 229.558C248.388 213.917 247.632 201.306 239.725 171.006C239.528 170.259 239.489 169.475 239.611 168.711C239.733 167.947 240.014 167.221 240.432 166.588C240.85 165.955 241.395 165.431 242.027 165.053C242.658 164.676 243.361 164.455 244.083 164.407C246.981 164.227 250.624 164.103 254.341 164.272C260.206 164.41 266.054 164.981 271.845 165.984C276.78 166.93 282.187 168.393 285.327 169.305C286.224 169.572 287.031 170.11 287.651 170.854C288.271 171.599 288.678 172.519 288.823 173.505Z" fill="#63E2C6"/>
<path opacity="0.2" d="M288.823 173.505C289.726 179.203 290.598 193.571 286.724 227.035L248.682 229.558C248.388 213.917 247.632 201.306 239.725 171.006C239.528 170.259 239.489 169.475 239.611 168.711C239.733 167.947 240.014 167.221 240.432 166.588C240.85 165.955 241.395 165.431 242.027 165.053C242.658 164.676 243.361 164.455 244.083 164.407C246.981 164.227 250.624 164.103 254.341 164.272C260.206 164.41 266.054 164.981 271.845 165.984C276.78 166.93 282.187 168.393 285.327 169.305C286.224 169.572 287.031 170.11 287.651 170.854C288.271 171.599 288.678 172.519 288.823 173.505Z" fill="white"/>
<path d="M286.65 227.035C286.65 227.035 298.505 303.941 299.649 334.613C300.846 366.524 287.469 439.084 287.469 439.084H274.817C274.817 439.084 279.447 369.812 276.528 338.588C273.378 304.549 258.836 228.882 258.836 228.882L286.65 227.035Z" fill="#63E2C6"/>
<path d="M273.714 439.579H288.614L289.706 434.478L273.021 433.859L273.714 439.579Z" fill="#263238"/>
<path opacity="0.2" d="M271.393 247.382C281.893 266.918 276.549 304.189 274.029 318.095C271.152 297.658 266.847 272.728 263.529 254.431C264.379 243.903 266.553 238.374 271.393 247.382Z" fill="black"/>
<path d="M276.654 227.711C276.654 227.711 276.381 308.783 264.81 332.564C251.065 360.714 194.061 331.708 194.061 331.708L196.581 318.196C196.581 318.196 234.381 327.328 244.261 319.773C254.887 284.461 235.357 254.465 248.65 229.513L276.654 227.711Z" fill="#63E2C6"/>
<path d="M196.791 316.642L193.672 333.33L198.229 336.167L202.723 316.699L196.791 316.642Z" fill="#263238"/>
<path d="M248.692 177.987C246.981 182.998 245.259 188.121 243.621 193.233C241.983 198.345 240.471 203.468 239.137 208.58L238.896 209.537L238.78 210.022C238.78 210.179 238.686 210.393 238.707 210.269V209.74C238.712 209.646 238.712 209.552 238.707 209.459C238.686 209.283 238.651 209.11 238.602 208.941C238.577 208.852 238.545 208.765 238.507 208.682C238.465 208.553 238.412 208.429 238.35 208.31C238.223 208.044 238.068 207.795 237.888 207.567C237.683 207.287 237.439 207.044 237.163 206.846C236.924 206.658 236.663 206.503 236.386 206.385C236.168 206.295 235.943 206.224 235.715 206.171C235.545 206.122 235.374 206.084 235.2 206.058C234.927 206.047 234.655 206.081 234.391 206.159C234.202 206.238 234.328 206.216 234.475 206.159C234.665 206.076 234.851 205.982 235.032 205.878C235.452 205.63 235.924 205.326 236.397 204.988C238.318 203.626 240.334 201.993 242.298 200.349C246.246 197.039 250.215 193.593 254.194 190.159L257.565 193.751C254.305 198.104 250.831 202.268 247.159 206.227C245.274 208.284 243.286 210.231 241.206 212.06C240.649 212.533 240.072 213.005 239.41 213.49C239.064 213.726 238.717 213.974 238.287 214.222C237.756 214.546 237.193 214.802 236.607 214.987C236.034 215.164 235.439 215.244 234.843 215.224C234.586 215.217 234.329 215.187 234.076 215.134C233.766 215.077 233.463 214.983 233.174 214.852C232.824 214.699 232.493 214.503 232.186 214.267C231.852 214.012 231.548 213.713 231.283 213.377C231.055 213.078 230.858 212.754 230.696 212.409C230.622 212.251 230.538 212.048 230.496 211.924L230.37 211.542C230.304 211.29 230.251 211.034 230.212 210.776C230.202 210.596 230.202 210.415 230.212 210.235C230.191 209.939 230.191 209.642 230.212 209.346V208.963V208.682C230.275 208.22 230.307 208.107 230.338 207.927L230.433 207.409L230.632 206.362C231.682 200.732 233.079 195.384 234.622 190.046C236.166 184.709 237.825 179.484 239.778 174.226L248.692 177.987Z" fill="#FFB573"/>
<path d="M241.027 164.936C237.289 166.434 233.52 180.813 233.52 180.813L248.965 191.172C248.965 191.172 253.879 177.3 251.968 172.12C249.984 166.727 245.301 163.27 241.027 164.936Z" fill="#63E2C6"/>
<path opacity="0.2" d="M241.027 164.936C237.289 166.434 233.52 180.813 233.52 180.813L248.965 191.172C248.965 191.172 253.879 177.3 251.968 172.12C249.984 166.727 245.301 163.27 241.027 164.936Z" fill="white"/>
<path d="M181.115 331.044C181.115 331.044 181.115 331.123 181.115 331.168C181.202 331.38 181.338 331.565 181.511 331.705C181.684 331.845 181.887 331.935 182.102 331.967C182.232 332.003 182.368 332.001 182.498 331.962C182.627 331.922 182.744 331.846 182.837 331.742C183.677 330.83 182.91 327.238 182.837 326.878C182.828 326.831 182.806 326.789 182.774 326.757C182.742 326.725 182.702 326.704 182.658 326.698C182.616 326.691 182.573 326.697 182.535 326.715C182.496 326.733 182.462 326.762 182.438 326.799C181.797 327.925 180.768 329.918 181.115 331.044ZM182.543 327.553C182.816 328.983 183.005 330.931 182.543 331.416C182.498 331.46 182.444 331.491 182.385 331.505C182.325 331.518 182.264 331.515 182.207 331.494C182.065 331.475 181.929 331.417 181.814 331.326C181.698 331.236 181.606 331.116 181.545 330.976C181.325 330.38 181.65 329.119 182.543 327.587V327.553Z" fill="#63E2C6"/>
<path d="M182.511 327.373C182.858 328.567 184.034 330.571 184.989 330.751C185.164 330.777 185.342 330.739 185.494 330.643C185.647 330.547 185.765 330.399 185.829 330.222C185.902 330.057 185.94 329.876 185.94 329.693C185.94 329.51 185.902 329.329 185.829 329.164C185.325 327.801 182.784 326.81 182.679 326.765C182.646 326.743 182.608 326.732 182.569 326.732C182.53 326.732 182.492 326.743 182.459 326.765C182.431 326.794 182.41 326.83 182.397 326.869C182.385 326.908 182.38 326.949 182.385 326.99C182.42 327.121 182.462 327.248 182.511 327.373ZM185.483 329.389C185.513 329.487 185.524 329.59 185.515 329.693C185.506 329.796 185.477 329.895 185.43 329.986C185.304 330.256 185.168 330.267 185.063 330.256C184.412 330.154 183.341 328.522 182.963 327.362C183.792 327.745 185.147 328.488 185.451 329.321C185.456 329.346 185.467 329.369 185.483 329.389Z" fill="#63E2C6"/>
<path d="M287.941 455.715C288.696 456.022 289.525 456.046 290.293 455.782C290.473 455.686 290.628 455.544 290.745 455.37C290.862 455.195 290.937 454.993 290.965 454.78C290.993 454.652 290.989 454.518 290.954 454.392C290.919 454.265 290.854 454.151 290.766 454.059C289.831 453.069 285.705 453.958 285.243 454.059C285.198 454.071 285.158 454.097 285.126 454.133C285.094 454.169 285.073 454.214 285.064 454.262C285.06 454.311 285.07 454.359 285.093 454.402C285.115 454.444 285.149 454.478 285.19 454.499C286.071 454.993 286.992 455.4 287.941 455.715ZM290.041 454.195C290.182 454.224 290.313 454.294 290.419 454.397C290.456 454.434 290.484 454.48 290.498 454.531C290.513 454.583 290.515 454.638 290.503 454.69C290.484 454.83 290.434 454.963 290.357 455.079C290.28 455.194 290.18 455.289 290.062 455.354C289.38 455.715 287.868 455.354 285.957 454.397C287.308 454.079 288.7 454.01 290.073 454.195H290.041Z" fill="#63E2C6"/>
<path d="M285.232 454.532H285.317C286.535 454.341 289.212 452.888 289.327 451.74C289.327 451.47 289.275 451.098 288.698 450.85C288.494 450.753 288.274 450.703 288.052 450.703C287.829 450.703 287.609 450.753 287.406 450.85C286.009 451.515 285.117 454.071 285.075 454.172C285.057 454.209 285.048 454.249 285.048 454.29C285.048 454.331 285.057 454.372 285.075 454.409C285.091 454.441 285.113 454.469 285.14 454.49C285.168 454.512 285.199 454.526 285.232 454.532ZM288.382 451.244H288.519C288.897 451.413 288.876 451.582 288.865 451.639C288.802 452.337 286.923 453.542 285.642 453.891C286.007 452.811 286.684 451.884 287.574 451.244C287.841 451.133 288.137 451.133 288.404 451.244H288.382Z" fill="#63E2C6"/>
<path d="M247.947 227.204L247.181 230.92C247.065 231.213 247.391 231.483 247.832 231.449L286.986 228.86C287.333 228.86 287.606 228.634 287.616 228.409L287.753 224.727C287.753 224.479 287.448 224.277 287.07 224.31L248.546 226.855C248.426 226.852 248.308 226.883 248.203 226.944C248.098 227.005 248.01 227.095 247.947 227.204Z" fill="white"/>
<path d="M253.386 231.483L252.336 231.551C252.136 231.551 251.968 231.461 251.979 231.325L252.189 226.54C252.189 226.405 252.367 226.281 252.577 226.27L253.627 226.191C253.827 226.191 253.995 226.281 253.984 226.427L253.774 231.202C253.764 231.337 253.585 231.472 253.386 231.483Z" fill="#63E2C6"/>
<path d="M284.109 229.445L283.059 229.513C282.859 229.513 282.691 229.423 282.702 229.287L282.912 224.513C282.912 224.367 283.09 224.243 283.29 224.232L284.34 224.164C284.539 224.164 284.708 224.254 284.697 224.389L284.487 229.164C284.487 229.31 284.319 229.434 284.109 229.445Z" fill="#63E2C6"/>
<path d="M268.8 230.458L267.75 230.537C267.54 230.537 267.382 230.447 267.382 230.301L267.592 225.527C267.592 225.38 267.771 225.256 267.981 225.245L269.031 225.177C269.241 225.177 269.398 225.268 269.398 225.403L269.188 230.188C269.125 230.323 268.957 230.447 268.8 230.458Z" fill="#63E2C6"/>
<path d="M254.31 164.396C260.174 164.53 266.022 165.098 271.813 166.096C273.913 166.49 276.118 166.997 278.187 167.504C279.289 171.163 280.056 178.64 276.98 184.81C276.55 183.625 275.898 182.546 275.066 181.64C274.234 180.734 273.238 180.02 272.139 179.541C270.419 181.259 269.108 183.394 268.317 185.767C264.232 184.979 253.239 174.744 248.22 166.502L246.918 164.373C249.196 164.227 251.737 164.216 254.31 164.396Z" fill="white"/>
<path d="M254.846 143.711C256.295 149.758 257.995 160.748 254.31 164.328C254.31 164.328 256.2 170.51 266.658 171.524C278.208 172.65 271.813 166.04 271.813 166.04C265.44 163.788 265.324 158.946 266.154 154.431L254.846 143.711Z" fill="#FFB573"/>
<path d="M254.32 164.396C260.182 164.519 266.027 165.087 271.813 166.096L272.958 166.321C274.522 169.249 274.995 172.571 272.002 178.539C272.002 178.539 256.41 171.546 252.052 164.328L254.32 164.396Z" fill="#FFB573"/>
<path opacity="0.2" d="M259.455 148.092L266.144 154.431C265.935 155.49 265.819 156.569 265.797 157.651C263.372 157.054 259.382 154.476 258.972 151.796C258.895 150.539 259.059 149.278 259.455 148.092Z" fill="black"/>
<path d="M247.422 136.415C250.75 145.749 251.968 149.781 257.922 153.159C266.815 158.237 276.822 151.819 276.118 141.617C275.53 132.429 270.196 118.714 260.368 117.836C258.209 117.629 256.037 118.018 254.057 118.966C252.078 119.913 250.358 121.389 249.06 123.251C247.763 125.113 246.931 127.3 246.644 129.604C246.357 131.908 246.625 134.253 247.422 136.415Z" fill="#FFB573"/>
<path d="M261.072 137.124L260.295 137.034C260.493 135.943 261.034 134.957 261.828 134.242C262.004 134.045 262.228 133.903 262.474 133.834C262.72 133.764 262.98 133.768 263.224 133.846C263.468 133.924 263.687 134.073 263.858 134.275C264.028 134.478 264.143 134.728 264.19 134.996L263.445 135.255C263.423 135.125 263.371 135.002 263.294 134.898C263.217 134.794 263.117 134.711 263.004 134.658C262.879 134.638 262.752 134.649 262.632 134.69C262.511 134.731 262.402 134.801 262.311 134.895C261.685 135.475 261.25 136.257 261.072 137.124Z" fill="#263238"/>
<path d="M269.85 132.755C269.807 132.523 269.812 132.283 269.865 132.053C269.918 131.823 270.018 131.608 270.157 131.424C270.297 131.241 270.472 131.092 270.671 130.989C270.871 130.886 271.089 130.832 271.31 130.83C271.708 130.795 272.107 130.89 272.454 131.103C272.801 131.316 273.079 131.637 273.252 132.024L272.57 132.429C272.468 132.184 272.299 131.979 272.084 131.842C271.87 131.705 271.621 131.642 271.373 131.663C271.258 131.667 271.145 131.694 271.041 131.745C270.936 131.795 270.842 131.867 270.764 131.956C270.697 132.056 270.651 132.17 270.627 132.29C270.604 132.41 270.604 132.534 270.627 132.654L269.85 132.755Z" fill="#263238"/>
<path d="M268.37 133.69C269.527 135.245 270.881 136.621 272.391 137.777C272.104 138.182 271.738 138.516 271.32 138.755C270.901 138.994 270.439 139.133 269.965 139.162L268.37 133.69Z" fill="#ED893E"/>
<path d="M266.91 143.52C267.267 143.457 267.618 143.363 267.96 143.238C267.987 143.23 268.013 143.215 268.035 143.195C268.056 143.175 268.074 143.151 268.087 143.124C268.1 143.096 268.107 143.066 268.109 143.036C268.111 143.005 268.106 142.974 268.097 142.946C268.077 142.888 268.039 142.84 267.988 142.81C267.938 142.781 267.879 142.773 267.824 142.788C266.932 143.115 265.98 143.211 265.047 143.066C264.114 142.921 263.227 142.54 262.458 141.955C262.412 141.914 262.353 141.895 262.294 141.902C262.235 141.908 262.181 141.939 262.143 141.989C262.105 142.038 262.088 142.101 262.094 142.164C262.099 142.228 262.129 142.286 262.175 142.326C262.851 142.852 263.618 143.228 264.43 143.433C265.243 143.638 266.086 143.668 266.91 143.52Z" fill="#263238"/>
<path d="M247.212 144.916C248.324 146.438 249.949 147.429 251.738 147.675C254.111 147.968 254.888 145.603 253.953 143.407C253.082 141.437 250.803 138.903 248.566 139.624C248.083 139.79 247.645 140.084 247.294 140.477C246.942 140.87 246.688 141.351 246.553 141.877C246.419 142.402 246.408 142.955 246.524 143.486C246.639 144.017 246.875 144.508 247.212 144.916Z" fill="#FFB573"/>
<path d="M262.5 117.791C269.367 123.229 260.704 123.928 256.357 127.925C252.157 131.765 255.402 138.059 248.283 140.581C246.11 141.14 243.882 141.416 241.647 141.403C241.647 141.403 244.944 134.489 243.894 130.334C242.844 126.18 254.636 111.474 262.5 117.791Z" fill="#263238"/>
<path d="M261.324 117.003C262.784 120.381 266.417 119.694 269.325 123.139C271.11 125.245 273.998 118.14 269.399 115.685C264.8 113.231 259.035 111.71 261.324 117.003Z" fill="#263238"/>
<path d="M253.859 142.27C254.835 146.245 254.415 149.814 250.709 150.861C249.825 151.109 248.905 151.168 248.001 151.034C247.097 150.901 246.226 150.577 245.438 150.083C244.65 149.588 243.961 148.932 243.409 148.152C242.858 147.372 242.455 146.483 242.225 145.536C241.994 144.588 241.939 143.602 242.063 142.632C242.188 141.662 242.489 140.728 242.951 139.883C243.412 139.039 244.024 138.299 244.751 137.708C245.479 137.117 246.308 136.685 247.191 136.437C250.887 135.401 252.882 138.284 253.859 142.27Z" fill="#63E2C6"/>
<path d="M254.016 114.672L249.469 117.036C240.66 124.704 245.7 138.757 245.7 138.757L249.134 137.079C249.134 137.079 245.206 122.329 254.016 114.672Z" fill="#63E2C6"/>
<path d="M245.7 139.061H245.584C245.513 139.029 245.457 138.968 245.427 138.892C245.375 138.746 240.418 124.536 249.28 116.823L253.89 114.413C253.953 114.379 254.026 114.372 254.094 114.393C254.162 114.414 254.22 114.461 254.257 114.525C254.295 114.589 254.311 114.664 254.301 114.739C254.291 114.813 254.257 114.881 254.205 114.931C245.637 122.385 249.375 136.865 249.417 137.012C249.432 137.084 249.425 137.159 249.396 137.226C249.368 137.293 249.32 137.348 249.259 137.383L245.815 139.061H245.7ZM252.42 115.843L249.596 117.318C241.815 124.074 245.206 136.246 245.857 138.34L248.797 136.899C248.356 135.019 245.962 123.196 252.42 115.843Z" fill="#63E2C6"/>
<path opacity="0.3" d="M249.9 143.374C250.646 146.448 250.541 149.15 248.325 149.769C246.11 150.389 243.716 148.396 242.96 145.322C242.204 142.248 243.39 139.241 245.606 138.566C247.821 137.89 249.176 140.3 249.9 143.374Z" fill="white"/>
<path d="M257.323 133.87C257.414 133.846 257.494 133.791 257.552 133.714C257.611 133.637 257.645 133.542 257.649 133.442C257.775 131.19 260.022 129.726 260.043 129.715C260.143 129.649 260.215 129.544 260.243 129.421C260.27 129.299 260.251 129.17 260.19 129.062C260.129 128.955 260.03 128.878 259.916 128.848C259.802 128.818 259.681 128.839 259.581 128.904C259.465 128.972 256.924 130.695 256.767 133.408C256.763 133.471 256.77 133.533 256.788 133.592C256.806 133.651 256.835 133.706 256.874 133.753C256.912 133.8 256.958 133.839 257.01 133.867C257.062 133.894 257.119 133.911 257.176 133.915L257.323 133.87Z" fill="#263238"/>
<path d="M272.255 125.966C272.331 125.966 272.407 125.944 272.474 125.903C272.54 125.861 272.595 125.801 272.633 125.729C272.663 125.675 272.683 125.616 272.691 125.553C272.699 125.491 272.696 125.428 272.681 125.367C272.667 125.306 272.641 125.249 272.606 125.199C272.57 125.149 272.526 125.107 272.475 125.076C271.87 124.684 271.187 124.453 270.482 124.402C269.777 124.351 269.07 124.482 268.422 124.783C268.316 124.84 268.236 124.94 268.198 125.06C268.161 125.18 268.17 125.312 268.223 125.425C268.275 125.539 268.368 125.625 268.48 125.665C268.593 125.705 268.715 125.696 268.821 125.639C269.336 125.405 269.896 125.308 270.453 125.355C271.01 125.402 271.549 125.592 272.024 125.909C272.096 125.944 272.175 125.963 272.255 125.966Z" fill="#263238"/>
<path d="M253.05 192.321L251.538 181.568L259.665 186.916C259.665 186.916 259.381 193.379 255.864 195.17L253.05 192.321Z" fill="#FFB573"/>
<path d="M254.436 176.129L262.027 179.079L259.696 186.916L251.569 181.568L254.436 176.129Z" fill="#FFB573"/>
<path d="M332.281 161.795L327.514 165.638C327.25 165.851 327.197 166.253 327.395 166.536L335.395 177.949C335.593 178.233 335.969 178.29 336.233 178.077L341 174.234C341.264 174.021 341.318 173.619 341.119 173.335L333.119 161.922C332.921 161.639 332.546 161.582 332.281 161.795Z" fill="#63E2C6"/>
<path d="M332.677 163.227L328.69 166.441C328.477 166.613 328.434 166.938 328.594 167.166L332.783 173.143C332.943 173.372 333.246 173.418 333.459 173.246L337.446 170.032C337.659 169.86 337.702 169.536 337.542 169.307L333.353 163.33C333.193 163.102 332.89 163.056 332.677 163.227Z" fill="white"/>
<path d="M333.774 176.219L333.711 174.811L335.044 173.967C335.731 173.535 336.357 173 336.903 172.379L337.365 171.861L337.071 171.4C336.91 171.149 336.677 170.962 336.408 170.867C336.139 170.771 335.848 170.773 335.58 170.87L334.456 171.276L328.818 172.098V174.665L330.624 177.311L333.774 176.219Z" fill="#FFB573"/>
</svg>
